<svg xmlns="http://www.w3.org/2000/svg" xmlns:xlink="http://www.w3.org/1999/xlink" viewBox="0 0 227.87 152.97"><defs><style>.cls-1{fill:url(#Degradado_sin_nombre_33);}.cls-2{fill:none;stroke:#fff;stroke-miterlimit:10;stroke-width:0.5px;}.cls-3{fill:#476515;}.cls-4{fill:#8ac734;}.cls-5{fill:url(#Degradado_sin_nombre_31);}.cls-6{fill:url(#Degradado_sin_nombre_31-2);}.cls-7{fill:url(#Degradado_sin_nombre_31-3);}.cls-8{fill:url(#Degradado_sin_nombre_31-4);}.cls-9{fill:url(#Degradado_sin_nombre_31-5);}.cls-10{fill:url(#Degradado_sin_nombre_31-6);}</style><linearGradient id="Degradado_sin_nombre_33" x1="114.13" y1="32.34" x2="114.13" y2="2.92" gradientUnits="userSpaceOnUse"><stop offset="0" stop-color="#1c4484"/><stop offset="0.12" stop-color="#21508c"/><stop offset="0.49" stop-color="#2e71a3"/><stop offset="0.79" stop-color="#3685b1"/><stop offset="1" stop-color="#398cb6"/></linearGradient><linearGradient id="Degradado_sin_nombre_31" x1="96.57" y1="150.32" x2="96.57" y2="107.85" gradientUnits="userSpaceOnUse"><stop offset="0" stop-color="#1c4484"/><stop offset="0.21" stop-color="#1f4c89"/><stop offset="0.52" stop-color="#276198"/><stop offset="0.91" stop-color="#3583af"/><stop offset="1" stop-color="#398cb6"/></linearGradient><linearGradient id="Degradado_sin_nombre_31-2" x1="22.4" y1="150.32" x2="22.4" y2="107.85" xlink:href="#Degradado_sin_nombre_31"/><linearGradient id="Degradado_sin_nombre_31-3" x1="59.57" y1="149.44" x2="59.57" y2="108.87" xlink:href="#Degradado_sin_nombre_31"/><linearGradient id="Degradado_sin_nombre_31-4" x1="176.41" y1="149.44" x2="176.41" y2="108.87" xlink:href="#Degradado_sin_nombre_31"/><linearGradient id="Degradado_sin_nombre_31-5" x1="136.76" y1="149.44" x2="136.76" y2="108.85" xlink:href="#Degradado_sin_nombre_31"/><linearGradient id="Degradado_sin_nombre_31-6" x1="210.29" y1="150.48" x2="210.29" y2="107.88" xlink:href="#Degradado_sin_nombre_31"/></defs><title>Mesa de trabajo 21cecaes</title><g id="Capa_1" data-name="Capa 1"><circle class="cls-1" cx="114.13" cy="17.63" r="14.71"/><path class="cls-2" d="M117.89,87.63V51.8s-.25-5.88,11.17-11.58C141.63,33.93,156.23,33,156.23,33s3.37-.38,3.62,2.79c.08,8.16.05,35.83.05,35.83s.24,5.91-4.09,5.88a79.89,79.89,0,0,0-20.13,4.58c-3.45,1.33-11.19,5.35-13.83,7.71C119.48,91.88,117.89,89.84,117.89,87.63Z"/><path class="cls-3" d="M119.1,89.51c.29,2.16,3.58.71,3.58.71,3.8-1.75,12.21-3.67,18.63-3.67a133,133,0,0,1,17.1,1.63c3.48.66,4.86-3.42,4.86-3.42l10.21-35.42s.79-3.29-2.21-3.92a69.63,69.63,0,0,0-13.46-1.29Z"/><path class="cls-4" d="M117.89,87.63V51.8s-.25-5.88,11.17-11.58C141.63,33.93,156.23,33,156.23,33s3.37-.38,3.62,2.79c.08,8.16.05,35.83.05,35.83s.24,5.91-4.09,5.88a79.89,79.89,0,0,0-20.13,4.58c-3.45,1.33-11.19,5.35-13.83,7.71C119.48,91.88,117.89,89.84,117.89,87.63Z"/><path class="cls-3" d="M110,89.51c-.3,2.16-3.59.71-3.59.71-3.79-1.75-12.2-3.67-18.62-3.67a133.41,133.41,0,0,0-17.11,1.63c-3.48.66-4.85-3.42-4.85-3.42L55.61,49.34s-.79-3.29,2.21-3.92a69.63,69.63,0,0,1,13.46-1.29Z"/><path class="cls-4" d="M111.19,87.63V51.8s.25-5.88-11.16-11.58C87.45,33.93,72.86,33,72.86,33s-3.37-.38-3.62,2.79c-.09,8.16-.06,35.83-.06,35.83s-.24,5.91,4.1,5.88A79.85,79.85,0,0,1,93.4,82.05c3.46,1.33,11.2,5.35,13.84,7.71C109.61,91.88,111.19,89.84,111.19,87.63Z"/><path class="cls-5" d="M78,128.76a21.2,21.2,0,0,1,2.8-10.64,19.05,19.05,0,0,1,7.31-7.35,23.37,23.37,0,0,1,11.33-2.92,18.48,18.48,0,0,1,8.56,1.88,19,19,0,0,1,7,5.17.34.34,0,0,1,0,.44l-7,7a.33.33,0,0,1-.49,0,10.47,10.47,0,0,0-8.29-4c-7.15,0-10.5,6.47-10.5,10.24,0,10.07,8.57,11,10.59,11a10.17,10.17,0,0,0,8.18-3.79.32.32,0,0,1,.47,0l7,6.9a.34.34,0,0,1,0,.45,21.75,21.75,0,0,1-15.85,7.1C87.67,150.32,78,141.72,78,128.76Z"/><path class="cls-6" d="M3.86,128.76a21.3,21.3,0,0,1,2.8-10.64A19,19,0,0,1,14,110.77a23.3,23.3,0,0,1,11.32-2.92,18.46,18.46,0,0,1,8.56,1.88,19,19,0,0,1,7,5.17.34.34,0,0,1,0,.44l-7,7a.32.32,0,0,1-.48,0,10.49,10.49,0,0,0-8.3-4c-7.15,0-10.5,6.47-10.5,10.24,0,10.07,8.57,11,10.59,11a10.16,10.16,0,0,0,8.18-3.79.34.34,0,0,1,.48,0l7,6.9a.35.35,0,0,1,0,.45A21.77,21.77,0,0,1,25,150.32C13.5,150.32,3.86,141.72,3.86,128.76Z"/><path class="cls-7" d="M74.15,140.09v9a.39.39,0,0,1-.4.39H45.4a.39.39,0,0,1-.4-.39V109.26a.39.39,0,0,1,.4-.39H73.7a.39.39,0,0,1,.4.39v8.95a.4.4,0,0,1-.4.4H55.31v5.31H73.68a.4.4,0,0,1,.4.4v8.91a.4.4,0,0,1-.4.4H55.29v6.06H73.75A.4.4,0,0,1,74.15,140.09Z"/><path class="cls-8" d="M191,140.09v9a.39.39,0,0,1-.4.39H162.23a.39.39,0,0,1-.4-.39V109.26a.39.39,0,0,1,.4-.39h28.31a.38.38,0,0,1,.39.39v8.95a.39.39,0,0,1-.39.4h-18.4v5.31h18.37a.4.4,0,0,1,.4.4v8.91a.4.4,0,0,1-.4.4H172.12v6.06h18.46A.4.4,0,0,1,191,140.09Z"/><path class="cls-9" d="M143.22,141.19l-13.34,0a.42.42,0,0,0-.39.27l-3,7.75a.41.41,0,0,1-.39.26H115.8a.41.41,0,0,1-.38-.58l17.2-39.76a.41.41,0,0,1,.38-.25h7.51a.43.43,0,0,1,.39.25l17.19,39.76a.41.41,0,0,1-.38.58H147.18a.42.42,0,0,1-.38-.25l-3.19-7.74A.44.44,0,0,0,143.22,141.19Zm-3.49-9.57-2.91-7.08a.42.42,0,0,0-.77,0l-2.88,7.08a.42.42,0,0,0,.39.57h5.79A.41.41,0,0,0,139.73,131.62Z"/><path class="cls-10" d="M195.35,144.45l6.72-7.42a.39.39,0,0,1,.56,0c1.71,1.79,3.35,3.67,6.81,3.71,3.07,0,5.35-1.16,5.32-3.29,0-2.41-4.81-4-7.1-4.65-2.51-.65-11-2.63-11.06-11.5,0-7.47,6.25-13.41,16.13-13.41,6.64,0,10.54,2.76,12.5,4.77a.39.39,0,0,1,0,.53l-6.55,7a.37.37,0,0,1-.54,0,7.93,7.93,0,0,0-5.79-2.6c-4,.1-5,2.09-5,3.16,0,1.78,2.83,3.16,5.12,3.65,7.24,1.56,12.7,5.18,12.82,12.16.18,11.06-10.37,14.1-15.88,13.91-6.1-.22-11.11-2.58-14-5.5A.39.39,0,0,1,195.35,144.45Z"/></g></svg>