<svg xmlns="http://www.w3.org/2000/svg" viewBox="0 0 23.66 146.95"><defs><style>.cls-1{fill:#fff;}</style></defs><title>Mesa de trabajo 40fullnesss</title><g id="FACEBOOK"><path class="cls-1" d="M.37,142.59V129.17l4.19.81v8.5l5.37,1.05v-8l4.14.82v8l9.22,1.73V147Z"/><path class="cls-1" d="M.37,120.43l13.19,2.51a13.1,13.1,0,0,0,2.72.24,3.07,3.07,0,0,0,3.27-3.33c0-2.55-1.7-4.25-6-5.07L.37,112.27v-4.9l13,2.48c6.94,1.33,10.27,4.39,10.27,10.61,0,4.73-2.41,7.62-7.31,7.62a18.24,18.24,0,0,1-3.19-.34L.37,125.32Z"/><path class="cls-1" d="M.37,103v-4.9L19,101.59v-8.8l4.29.81v13.7Z"/><path class="cls-1" d="M.37,86.39V81.5L19,85v-8.8l4.29.81v13.7Z"/><path class="cls-1" d="M23.29,74.19.37,69.83V64.09l8.74-3c2.92-.91,5.3-1.53,7.82-2.07v-.1A54.83,54.83,0,0,1,8.7,57.83L.37,56.27V51.71L23.29,56V61.1l-9.15,3.19a73,73,0,0,1-8,2.25l0,.1c2.21.27,5.47.81,9.07,1.49l8,1.5Z"/><path class="cls-1" d="M13.56,36.65v8.16l5.55,1.06V36.72l4.18.78v14L.37,47.19V33.63l4.19.81v8.64l4.89,1V35.87Z"/><path class="cls-1" d="M18,33a10.74,10.74,0,0,0,1.47-5.41c0-1.9-.89-3.63-2.69-3.63-1.29,0-2.14,1-3.23,3.09-1.33,2.45-3.09,4.76-6.08,4.76-4.63,0-7.45-4.05-7.45-9a10.79,10.79,0,0,1,1.16-5.41l4.08,1.53a9,9,0,0,0-1,4.28c0,2.28,1.15,3.47,2.41,3.47s2.14-1.39,3.23-3.33c1.46-2.79,3.33-4.56,6.05-4.56,5.1,0,7.72,4.22,7.72,9.32A11.55,11.55,0,0,1,22,34.61Z"/><path class="cls-1" d="M18,15.64a10.74,10.74,0,0,0,1.47-5.41c0-1.9-.89-3.63-2.69-3.63-1.29,0-2.14,1-3.23,3.09-1.33,2.45-3.09,4.76-6.08,4.76-4.63,0-7.45-4-7.45-9A10.79,10.79,0,0,1,1.16,0L5.24,1.53a9,9,0,0,0-1,4.28c0,2.28,1.15,3.47,2.41,3.47S8.77,7.89,9.86,6c1.46-2.79,3.33-4.56,6.05-4.56,5.1,0,7.72,4.22,7.72,9.32A11.55,11.55,0,0,1,22,17.27Z"/></g></svg>